<svg width="40" height="40" viewBox="0 0 40 40" fill="none" xmlns="http://www.w3.org/2000/svg">
<path d="M18.7501 21.2493H10.4167C10.0626 21.2493 9.76578 21.1295 9.52633 20.8898C9.28661 20.65 9.16675 20.3531 9.16675 19.9989C9.16675 19.6445 9.28661 19.3477 9.52633 19.1085C9.76578 18.8691 10.0626 18.7493 10.4167 18.7493H18.7501V10.416C18.7501 10.0618 18.8699 9.76504 19.1097 9.5256C19.3494 9.28588 19.6463 9.16602 20.0005 9.16602C20.3549 9.16602 20.6517 9.28588 20.8909 9.5256C21.1304 9.76504 21.2501 10.0618 21.2501 10.416V18.7493H29.5834C29.9376 18.7493 30.2344 18.8692 30.4738 19.1089C30.7136 19.3487 30.8334 19.6456 30.8334 19.9998C30.8334 20.3542 30.7136 20.651 30.4738 20.8902C30.2344 21.1296 29.9376 21.2493 29.5834 21.2493H21.2501V29.5827C21.2501 29.9368 21.1302 30.2337 20.8905 30.4731C20.6508 30.7128 20.3538 30.8327 19.9997 30.8327C19.6452 30.8327 19.3484 30.7128 19.1092 30.4731C18.8698 30.2337 18.7501 29.9368 18.7501 29.5827V21.2493Z" fill="#777777"/>
</svg>
